<?xml version="1.0" encoding="UTF-8" standalone="no"?>
<!-- Created with Inkscape (http://www.inkscape.org/) -->
<svg xmlns:dc="http://purl.org/dc/elements/1.1/" xmlns:cc="http://creativecommons.org/ns#" xmlns:rdf="http://www.w3.org/1999/02/22-rdf-syntax-ns#" xmlns:svg="http://www.w3.org/2000/svg" xmlns="http://www.w3.org/2000/svg" xmlns:sodipodi="http://sodipodi.sourceforge.net/DTD/sodipodi-0.dtd" xmlns:inkscape="http://www.inkscape.org/namespaces/inkscape" width="945.276" height="591.13196" id="svg2" version="1.1" inkscape:version="0.48.2 r9819" sodipodi:docname="Outline_Map_of_Crimea.svg">
  <defs id="defs4"/>
  <sodipodi:namedview id="base" pagecolor="#ffffff" bordercolor="#666666" borderopacity="1.0" inkscape:pageopacity="0.0" inkscape:pageshadow="2" inkscape:zoom="0.35364158" inkscape:cx="541.02936" inkscape:cy="281.83444" inkscape:document-units="px" inkscape:current-layer="svg2" showgrid="false" fit-margin-top="0" fit-margin-left="0" fit-margin-right="0" fit-margin-bottom="0" inkscape:window-width="1400" inkscape:window-height="988" inkscape:window-x="-8" inkscape:window-y="-8" inkscape:window-maximized="1" borderlayer="true"/>
  <metadata id="metadata7">
    <rdf:RDF>
      <cc:Work rdf:about="">
        <dc:format>image/svg+xml</dc:format>
        <dc:type rdf:resource="http://purl.org/dc/dcmitype/StillImage"/>
        <dc:title/>
      </cc:Work>
    </rdf:RDF>
  </metadata>
  <path style="fill:#006fb0;fill-opacity:1;fill-rule:evenodd;stroke:#006fb0;stroke-width:3;stroke-linejoin:miter;stroke-miterlimit:4;stroke-opacity:1;stroke-dasharray:none;stroke-dashoffset:0" d="m 291.0887,94.229607 c -1.33024,-2.91956 -2.94706,-3.57986 -11.18437,-4.56769 -10.63294,-1.27512 -11.36344,-1.2654 -14.93131,0.19859 -2.11326,0.86714 -2.47425,0.19015 -2.47425,-4.64018 0,-5.82015 2.18618,-8.07182 6.30317,-6.49199 2.46326,0.94525 4.31943,-4.909775 3.08034,-9.716479 -0.7828,-3.036639 -6.46516,-6.71584 -10.37232,-6.71584 -2.80804,0 -2.18973,-5.304625 0.98881,-8.483165 3.51225,-3.512248 3.51225,-4.426312 0,-11.310887 -4.06262,-7.963389 -3.70466,-10.893602 1.4696,-12.030059 3.63508,-0.798399 4.14145,-1.414886 3.28589,-4.000457 -0.55629,-1.681133 -0.92707,-5.596264 -0.82396,-8.700289 0.10312,-3.104026 -0.7393,-7.058125 -1.87203,-8.786887 C 262.24022,5.446482 261.83713,1.5 263.79382,1.5 c 0.71228,0 3.3107,2.54495 5.77425,5.655443 2.46356,3.110494 5.69821,5.655444 7.18811,5.655444 1.94694,0 2.70892,0.994247 2.70892,3.534652 0,1.944059 0.63624,3.534653 1.41386,3.534653 0.77762,0 1.43503,1.431534 1.4609,3.181187 0.0259,1.749652 1.27117,4.649648 2.76734,6.444435 2.18883,2.625706 3.256,2.976549 5.46227,1.795788 2.30606,-1.234162 2.87812,-0.925025 3.59832,1.944495 1.0116,4.030543 6.27076,6.244078 8.07395,3.39826 0.66863,-1.055245 1.22544,-5.018657 1.23734,-8.807586 0.0186,-5.935765 0.31261,-6.647489 2.12444,-5.143801 1.15653,0.959836 3.01259,1.396032 4.12457,0.969325 1.11199,-0.426708 2.38225,0.163502 2.8228,1.311578 0.98037,2.554797 -1.60334,7.33679 -5.86897,10.862426 -4.32657,3.576005 -4.25532,7.241804 0.11942,6.143816 4.2452,-1.06548 10.74789,5.413576 12.11616,12.07214 0.76539,3.724682 0.38809,5.180313 -1.80487,6.963147 -3.51567,2.858174 -2.14732,7.595403 1.88904,6.539871 2.21039,-0.578031 2.73181,0.0075 2.69015,3.02078 -0.0284,2.05578 0.39478,5.487436 0.94046,7.625904 0.64113,2.5125 0.43362,3.88811 -0.58653,3.88811 -0.86828,0 -1.59636,-0.79529 -1.61796,-1.76732 -0.0216,-0.97203 -1.93031,-3.62302 -4.24158,-5.89109 -2.31127,-2.268067 -4.20231,-5.290195 -4.20231,-6.715839 0,-1.425643 -0.63624,-2.592078 -1.41386,-2.592078 -0.77763,0 -1.41386,-0.855748 -1.41386,-1.90166 0,-2.192665 -4.45179,-6.581505 -6.6759,-6.581505 -2.37577,0 -3.18065,3.694468 -1.8305,8.402152 1.07723,3.756093 0.88204,4.322596 -1.48932,4.322596 -1.958,0 -2.72903,0.984584 -2.72903,3.484907 0,2.072092 -1.18117,4.117047 -2.91352,5.044177 -1.86392,0.99753 -2.75528,2.67084 -2.47426,4.64479 0.98384,6.91074 13.8253,0.80085 13.90238,-6.614668 0.0304,-2.92398 0.12117,-2.907778 2.72971,0.487232 1.54918,2.016256 2.11751,3.870716 1.33454,4.354616 -0.75006,0.46356 -0.9807,1.84103 -0.51253,3.06104 0.46816,1.22002 0.17159,2.63823 -0.65905,3.15159 -2.87625,1.77763 -1.58779,5.00809 1.99747,5.00809 2.65873,0 3.73265,-0.94106 4.43706,-3.88812 1.3628,-5.70155 1.84888,-6.16372 4.81374,-4.57698 2.0653,1.10532 2.66032,2.9118 2.5626,7.78006 l -0.12726,6.34048 -14.43929,0 c -13.89254,0 -14.49816,-0.12922 -15.99432,-3.41293 l 0,0 z" id="path3848" inkscape:connector-curvature="0"/>
  <path style="fill:#006fb0;fill-opacity:1;fill-rule:evenodd;stroke:#006fb0;stroke-width:3;stroke-linejoin:miter;stroke-miterlimit:4;stroke-opacity:1;stroke-dasharray:none;stroke-dashoffset:0" d="m 369.43741,95.530857 c 0.5152,-1.34258 -0.33272,-2.53453 -2.32806,-3.27266 -1.863,-0.68917 -3.88366,-3.32882 -4.9723,-6.49546 -1.65073,-4.80164 -1.56384,-5.60457 0.86982,-8.03823 1.48706,-1.487058 2.70374,-3.605077 2.70374,-4.706711 0,-1.101632 0.67265,-2.227186 1.49478,-2.501227 0.82212,-0.274042 1.05814,-1.636102 0.52448,-3.026799 -0.53366,-1.390698 -1.82217,-2.201645 -2.86336,-1.802104 -1.04118,0.399541 -2.2691,0.117986 -2.72871,-0.625675 -0.45961,-0.743661 -2.3887,-1.352112 -4.28686,-1.352112 -3.81478,0 -4.45521,2.551507 -1.85834,7.40379 1.27805,2.388061 1.13833,3.308679 -0.70693,4.657968 -1.39458,1.01974 -2.29981,3.70722 -2.29981,6.82777 0,5.76354 -1.28611,6.52545 -3.91346,2.31838 -0.97127,-1.55524 -2.71491,-2.82772 -3.87475,-2.82772 -1.15985,0 -2.10881,-0.95435 -2.10881,-2.12079 0,-1.16643 0.56203,-2.12079 1.24896,-2.12079 1.92962,0 3.04647,-6.007747 1.46998,-7.907304 -0.77236,-0.930642 -1.30663,-2.236224 -1.18726,-2.901294 0.55921,-3.115575 -0.30466,-4.583429 -2.25662,-3.834391 -2.51277,0.964244 -6.34437,-1.82428 -6.34437,-4.617252 0,-2.603446 6.98167,-2.458722 10.52073,0.218085 3.72444,2.817027 5.03174,2.610148 5.03174,-0.796269 0,-1.579653 -1.11341,-3.21669 -2.47425,-3.637861 -1.36084,-0.421171 -3.61356,-1.377113 -5.00603,-2.124315 -1.39247,-0.747203 -3.14101,-0.982018 -3.88563,-0.521813 -0.74463,0.460205 -2.76903,-0.154478 -4.49867,-1.365963 -1.72964,-1.211486 -4.2757,-2.202701 -5.65792,-2.202701 -1.38222,0 -2.51313,-1.03226 -2.51313,-2.293911 0,-1.772877 0.4364,-1.931728 1.92131,-0.69936 1.3523,1.122302 4.59749,1.214577 10.95743,0.311568 11.00312,-1.562268 17.22549,1.009593 17.9747,7.429391 0.51928,4.449482 4.09547,6.528375 6.17228,3.588037 1.03402,-1.463954 1.2086,-1.132132 0.67631,1.28544 -0.55401,2.516229 0.084,3.563526 2.8,4.596145 2.72946,1.037739 3.30809,1.997195 2.58274,4.282581 -0.7855,2.474871 -0.40552,2.876804 2.37932,2.516783 3.61292,-0.467074 6.84876,0.998725 6.84876,3.102403 0,0.731731 -0.95435,1.330419 -2.12079,1.330419 -2.3796,0 -2.47523,0.258943 -1.26259,3.419022 0.47201,1.23003 1.82238,2.23642 3.00084,2.23642 1.73142,0 1.80933,0.40161 0.40597,2.09256 -1.51587,1.82651 -2.03223,1.75061 -4.06124,-0.59699 -1.78498,-2.06524 -3.07063,-2.39463 -5.53867,-1.41901 -3.1107,1.22966 -3.14482,1.43638 -1.0604,6.4251 1.18455,2.83501 2.15372,5.39498 2.15372,5.68882 0,0.29385 1.55105,0.53427 3.44678,0.53427 2.57521,0 3.39292,0.71503 3.23378,2.82772 -0.16611,2.2051 -1.22659,2.82772 -4.81627,2.82772 -3.5021,0 -4.40943,-0.50514 -3.79294,-2.11168 l 0,0 z" id="path3850" inkscape:connector-curvature="0"/>
  <path style="fill:#006fb0;fill-opacity:1;fill-rule:evenodd;stroke:#006fb0;stroke-width:3;stroke-linejoin:miter;stroke-miterlimit:4;stroke-opacity:1;stroke-dasharray:none;stroke-dashoffset:0" d="m 326.97491,90.926697 c 0.21797,-5.64721 0.73422,-6.78786 3.24438,-7.16846 1.73149,-0.26254 3.34292,0.47967 3.83704,1.76732 1.08362,2.82388 3.37707,2.89122 3.37707,0.0992 0,-3.91943 3.65697,-2.16656 5.37141,2.57463 3.17803,8.78868 2.67931,9.44318 -7.19561,9.44318 l -8.8935,0 0.25921,-6.71584 z" id="path3852" inkscape:connector-curvature="0"/>
  <path style="fill:#006fb0;fill-opacity:1;fill-rule:evenodd;stroke:#006fb0;stroke-width:3;stroke-linejoin:miter;stroke-miterlimit:4;stroke-opacity:1;stroke-dasharray:none;stroke-dashoffset:0" d="m 329.86243,72.280127 c -2.0279,-0.723007 -2.75961,-2.762136 -3.22743,-8.994198 -0.35276,-4.699279 -0.031,-8.059215 0.77168,-8.059215 2.42634,0 3.38686,3.099702 1.37122,4.425107 -1.55142,1.02016 -1.15935,1.979763 1.92412,4.709262 4.48687,3.971785 3.88961,9.605147 -0.83959,7.919044 z" id="path3855" inkscape:connector-curvature="0"/>
  <path style="fill:#006fb0;fill-opacity:1;fill-rule:evenodd;stroke:#006fb0;stroke-width:3;stroke-linejoin:miter;stroke-miterlimit:4;stroke-opacity:1;stroke-dasharray:none;stroke-dashoffset:0" d="m 336.80532,76.562217 c -1.22012,-1.974192 0.68998,-5.783033 2.90013,-5.783033 1.15826,0 1.96953,1.455968 1.96953,3.534652 0,3.473031 -3.19973,4.950381 -4.86966,2.248381 z" id="path3857" inkscape:connector-curvature="0"/>
  <path style="fill:#006fb0;fill-opacity:1;fill-rule:evenodd;stroke:#006fb0;stroke-width:3;stroke-linejoin:miter;stroke-miterlimit:4;stroke-opacity:1;stroke-dasharray:none;stroke-dashoffset:0" d="m 384.0908,95.905727 c 11.33974,-3.31847 14.59195,-5.42548 11.40984,-7.39213 -0.7232,-0.44696 -1.75086,-4.30193 -2.2837,-8.56661 -0.64928,-5.19667 -1.6145,-7.753942 -2.92667,-7.753942 -1.07684,0 -1.95788,-1.272475 -1.95788,-2.827722 0,-2.18673 -0.94258,-2.827722 -4.15814,-2.827722 -4.85857,0 -6.62083,-2.002944 -4.11883,-4.681346 1.86243,-1.993742 8.27697,-1.525196 8.27697,0.604587 0,0.686971 1.96827,1.249037 4.37395,1.249037 3.18488,0 4.57497,0.768719 5.11341,2.827722 1.02704,3.92743 6.61998,3.697761 8.60764,-0.353465 1.48768,-3.032184 1.55268,-2.982517 1.38779,1.060395 -0.27987,6.861995 1.46517,10.236986 5.65975,10.946196 2.11288,0.35725 4.79596,0.90357 5.9624,1.21404 1.52373,0.40559 2.16059,-0.64373 2.26217,-3.727211 0.0778,-2.360448 0.95681,-5.815358 1.95344,-7.677577 1.73597,-3.243673 1.89282,-3.275401 3.73537,-0.755563 1.63421,2.234915 1.60624,2.980662 -0.18611,4.961184 -1.16019,1.281991 -2.10943,3.639156 -2.10943,5.238147 0,3.11836 5.44731,7.47404 9.34719,7.47404 1.30756,0 5.43823,2.86307 9.17927,6.36238 l 6.80189,6.36237 -35.63941,-0.14434 c -26.7932,-0.10851 -34.41113,-0.50378 -30.69091,-1.59247 z" id="path3859" inkscape:connector-curvature="0"/>
  <path style="fill:#006fb0;fill-opacity:1;fill-rule:evenodd;stroke:#006fb0;stroke-width:3;stroke-linejoin:miter;stroke-miterlimit:4;stroke-opacity:1;stroke-dasharray:none;stroke-dashoffset:0" d="m 474.85964,91.242347 c -1.7102,-3.52011 -3.10946,-6.7013 -3.10946,-7.06931 0,-1.58159 4.05206,-0.48028 5.74698,1.56198 1.0184,1.22709 4.93728,3.7947 8.70862,5.70578 3.77134,1.91108 6.47776,4.08828 6.01427,4.83822 -0.46348,0.74994 -3.85956,1.36352 -7.54683,1.36352 -6.55099,0 -6.77516,-0.14619 -9.81358,-6.40019 z" id="path3861" inkscape:connector-curvature="0"/>
  <path style="fill:#ffffff;fill-opacity:1;fill-rule:evenodd;stroke:#006fb0;stroke-width:2.01475167;stroke-linejoin:miter;stroke-miterlimit:4;stroke-opacity:1;stroke-dasharray:none;stroke-dashoffset:0" d="m 293.09241,490.69587 c -0.4476,-1.16643 -1.55893,-2.12079 -2.46964,-2.12079 -0.91071,0 -2.36221,-0.8467 -3.22557,-1.88158 -1.17723,-1.41109 -4.3377,-1.67486 -12.63949,-1.05491 -6.08837,0.45466 -11.33733,0.55908 -11.66436,0.23207 -0.32702,-0.32702 -0.59458,-2.31457 -0.59458,-4.41679 0,-3.32352 0.83008,-4.05458 6.36237,-5.60354 6.77587,-1.89712 7.22012,-2.77293 4.85222,-9.56554 -1.38,-3.95864 -2.41568,-4.53352 -12.01494,-6.66916 -9.07225,-2.01838 -10.62382,-2.81147 -11.37789,-5.81593 -0.65442,-2.60743 0.0219,-4.30837 2.70024,-6.79052 4.37655,-4.05605 6.11663,-15.12691 4.55247,-28.96396 -0.58152,-5.1443 -0.95831,-12.05498 -0.83731,-15.35707 0.12102,-3.30209 -0.75971,-9.30277 -1.95711,-13.33483 -1.19739,-4.03208 -2.17708,-7.46144 -2.17708,-7.62082 0,-0.15937 2.86307,-0.71912 6.36238,-1.24387 10.00415,-1.50022 7.16557,-7.85014 -3.50922,-7.85014 -3.93554,0 -11.38684,-5.48978 -11.31468,-8.33615 0.0831,-3.28115 3.20291,-4.97172 8.73267,-4.73221 3.35017,0.14509 7.20464,-0.0792 8.56548,-0.4985 4.01347,-1.23653 2.82984,-3.39947 -1.86027,-3.39947 -2.384,0 -5.72424,-0.75602 -7.42277,-1.68007 -3.2366,-1.76075 -12.4773,-1.63357 -13.6922,0.18847 -0.38881,0.58311 -2.18686,-0.75145 -3.99565,-2.96568 l -3.28873,-4.02589 3.64219,0 c 2.0032,0 4.91467,-1.27247 6.46991,-2.82772 1.55525,-1.55525 3.73921,-2.82772 4.85324,-2.82772 1.11403,0 2.44386,-1.31807 2.95516,-2.92904 1.10409,-3.47869 -2.73877,-8.38185 -6.56929,-8.38185 -1.54417,0 -2.27907,-0.74307 -1.84742,-1.86796 0.45221,-1.17844 2.26246,-1.6411 4.90415,-1.25339 3.16433,0.46442 4.18733,0.0573 4.18733,-1.66669 0,-1.2547 0.63624,-2.28126 1.41386,-2.28126 0.77762,0 1.41386,0.63623 1.41386,1.41386 0,1.76713 3.79492,1.86655 4.86966,0.12753 1.48871,-2.4088 -0.98065,-5.9387 -3.99025,-5.704 -6.43141,0.50161 -9.36257,-0.16085 -9.36257,-2.11593 0,-1.77124 -0.50718,-1.77237 -3.88812,-0.008 -5.38024,2.8066 -7.29599,2.57317 -6.41858,-0.78206 0.63881,-2.44279 0.0434,-2.82772 -4.37394,-2.82772 -4.63809,0 -5.11342,0.36213 -5.11342,3.89562 0,3.26401 -0.85962,4.16468 -5.30192,5.5551 -4.32057,1.35232 -5.50399,1.29842 -6.39358,-0.29118 -0.60039,-1.07285 -2.19101,-3.05004 -3.53469,-4.39374 -2.26826,-2.26827 -2.47577,-2.27328 -2.90017,-0.07 -0.25141,1.30522 0.49512,4.28192 1.65895,6.61488 1.60598,3.21923 1.68855,4.24175 0.34256,4.24175 -0.97543,0 -2.62477,1.59059 -3.6652,3.53465 -1.04043,1.94406 -2.68551,3.53465 -3.65575,3.53465 -0.97022,0 -2.01204,0.74396 -2.31512,1.65324 -0.30311,0.90929 -2.74528,1.57075 -5.42708,1.46992 -5.46245,-0.20534 -6.99023,0.56281 -9.25457,4.65308 -2.55852,4.62168 -6.16009,4.24049 -10.57832,-1.11958 -2.23116,-2.7068 -5.70496,-5.33514 -7.71954,-5.84076 -4.63665,-1.16372 -13.32187,-6.73555 -13.34497,-8.5612 -0.01,-0.7606 -2.40339,-3.70335 -5.31948,-6.53943 -2.91609,-2.83608 -6.57445,-6.87992 -8.1297,-8.98632 -1.55525,-2.10638 -5.46215,-6.3596 -8.68201,-9.45158 -4.09694,-3.93424 -5.639,-6.44509 -5.13708,-8.36442 0.39447,-1.50865 1.27924,-2.74283 1.96617,-2.74283 0.68693,0 1.24896,-0.88539 1.24896,-1.96752 0,-1.08214 1.5906,-2.36673 3.53466,-2.85465 3.26646,-0.81985 5.15562,-5.07486 2.25315,-5.07486 -0.70482,0 -0.95638,-1.24325 -0.55901,-2.7628 0.5765,-2.20453 1.54966,-2.59734 4.81615,-1.94406 3.19754,0.63952 4.09366,0.30609 4.09366,-1.52315 0,-1.28805 1.11342,-2.75182 2.47426,-3.25283 3.42523,-1.26103 11.66435,-10.08215 11.66435,-12.4883 0,-1.08665 0.7953,-1.67095 1.76733,-1.29841 0.97203,0.37253 3.48921,-0.91991 5.59374,-2.8721 2.10452,-1.95219 4.22944,-3.54943 4.72203,-3.54943 1.69352,0 9.12481,-7.76857 9.12481,-9.53896 0,-1.94692 -2.31177,-2.43843 -3.06337,-0.65131 -0.75155,1.78703 -10.48881,7.36255 -12.85818,7.36255 -1.18585,0 -2.52232,0.95436 -2.96993,2.12079 -0.4476,1.16644 -1.71917,2.12079 -2.82572,2.12079 -1.10653,0 -2.40545,1.56814 -2.88651,3.48475 -0.55774,2.22225 -1.59145,3.20967 -2.85325,2.72547 -1.16583,-0.44736 -2.34418,0.3924 -2.86844,2.04421 -1.1687,3.68222 -5.86444,6.63423 -12.5182,7.86968 -2.95695,0.54903 -5.72903,1.91749 -6.16017,3.04102 -0.43114,1.12354 -1.99452,2.04279 -3.47418,2.04279 -1.47967,0 -3.73105,1.21551 -5.00309,2.70113 -2.50431,2.92483 -9.72463,2.94704 -25.842949,0.0795 -4.22534,-0.7517 -13.132667,-1.3634 -19.794054,-1.35931 -9.746897,0.006 -12.939757,0.55955 -16.353197,2.83523 -2.332871,1.55527 -6.309354,4.15972 -8.836631,5.78765 -2.527276,1.62794 -4.595048,3.51089 -4.595048,4.18434 0,0.67345 -1.218892,1.8768 -2.708649,2.67409 -2.59047,1.38638 -12.358762,-0.66287 -20.620055,-4.32579 -1.555247,-0.68958 -5.372672,-1.78953 -8.483166,-2.44434 -5.7828758,-1.21736 -5.9617268,-1.50137 -4.3321118,-6.87896 0.939384,-3.09989 -2.014505,-7.42366 -6.448577,-9.43915 -1.50067701,-0.68213 -1.54098401,-1.07176 -0.176733,-1.70841 0.97203,-0.45362 1.767326,-1.50105 1.767326,-2.32764 0,-2.26588 12.3669068,-15.21092 20.4376538,-21.39307 9.341394,-7.15545 23.011669,-14.06295 23.706422,-11.97869 0.659296,1.97789 6.754917,-0.96725 6.754917,-3.26368 0,-1.56482 5.326448,-6.28554 10.486221,-9.29373 5.634414,-3.28491 7.049092,-1.7912 2.185119,2.30719 -4.012567,3.381 -4.478777,4.28902 -2.585893,5.03645 3.710881,1.46529 12.536327,-2.90246 12.536327,-6.20429 0,-2.18616 0.898243,-2.81689 3.888117,-2.73017 4.602242,0.13348 18.568162,-3.73715 20.517361,-5.68636 2.05694,-2.05693 -0.24066,-4.66883 -3.263149,-3.70953 -1.46043,0.46352 -3.91018,0.17119 -5.44388,-0.64962 -1.82674,-0.97764 -4.00186,-1.03109 -6.30626,-0.15496 -2.45537,0.93353 -3.94002,0.82684 -4.916105,-0.35327 -2.222885,-2.68751 29.319474,-25.33858 44.586844,-32.01851 1.71185,-0.74899 5.52927,-2.87988 8.48317,-4.73532 2.95389,-1.85544 6.22875,-3.08149 7.27746,-2.72455 2.21586,0.75418 8.88579,-2.39838 10.53479,-4.97929 0.62186,-0.9733 3.09099,-1.76964 5.48697,-1.76964 4.16891,0 4.32259,-0.20785 3.57231,-4.83127 l -0.78401,-4.83128 5.09595,2.12922 c 6.37479,2.66356 10.30536,1.8852 24.05076,-4.76269 7.02792,-3.39902 13.5235,-7.9156 18.18708,-12.64606 8.29643,-8.41543 21.72957,-16.14576 21.72957,-12.50467 0,2.98037 3.80389,4.22359 6.38037,2.08529 1.71419,-1.42265 2.10279,-1.32124 2.10279,0.54875 0,4.45471 4.46411,2.26406 6.82084,-3.34715 1.42334,-3.38889 3.31906,-5.6468 4.74823,-5.65544 1.30845,-0.008 2.78285,-1.28686 3.27647,-2.84211 1.05799,-3.33344 5.27803,-3.71708 7.77624,-0.70693 0.96805,1.16644 2.37551,2.1208 3.12767,2.1208 1.85131,0 6.66385,5.90444 6.72231,8.24752 0.0259,1.03683 0.84234,1.61111 1.81437,1.27617 1.25678,-0.43305 1.62495,-3.53038 1.2745,-10.72177 -0.36778,-7.54683 -0.0322,-10.11281 1.32273,-10.11281 0.99856,0 3.25573,-1.35297 5.01594,-3.0066 3.71159,-3.486853 7.58583,-2.670673 7.58583,1.59811 0,1.60701 0.99036,4.4333 2.20078,6.28064 1.23612,1.88657 2.2252,6.51271 2.25651,10.55421 0.0537,6.92897 1.8228,9.48336 3.51458,5.07462 0.44762,-1.16643 1.70012,-2.12079 2.78336,-2.12079 1.08323,0 1.96952,-0.63624 1.96952,-1.41386 0,-0.77762 -0.95435,-1.41386 -2.12079,-1.41386 -3.02876,0 -2.61959,-2.82146 0.96208,-6.63397 l 3.08288,-3.28157 -3.17334,-5.64619 -3.17334,-5.646193 24.04266,0 c 15.78779,0 24.36881,0.52773 24.99259,1.53704 0.52247,0.845373 2.14474,1.224583 3.60506,0.842703 2.22423,-0.58165 2.59988,0.0205 2.31469,3.71011 -0.25373,3.28276 0.31255,4.53922 2.22358,4.93369 1.56942,0.32396 2.42168,-0.20322 2.19707,-1.35902 -0.20181,-1.03855 0.12937,-3.35331 0.73609,-5.14391 0.86655,-2.55768 1.51763,-2.911523 3.03705,-1.65051 2.09052,1.73497 7.72518,0.60332 7.72518,-1.551513 0,-0.78561 16.78728,-1.31859 41.53217,-1.31859 l 41.53216,0 0.81706,4.085323 c 0.44939,2.24692 2.3158,5.8277 4.1476,7.95728 3.02767,3.51989 3.61615,3.69481 6.47162,1.9236 1.7276,-1.07161 3.85286,-4.31429 4.72279,-7.20595 l 1.58172,-5.257573 4.14323,2.429853 c 4.02336,2.35954 4.21813,2.33781 6.73197,-0.75134 1.68291,-2.068053 4.13473,-3.181193 7.00692,-3.181193 4.11877,0 4.30495,0.21154 2.7474,3.121843 -0.91892,1.71701 -1.73661,4.31811 -1.81707,5.78021 -0.10053,1.82506 -2.58394,3.6852 -7.92256,5.93404 -6.0908,2.56568 -7.86918,4.02916 -8.20505,6.7522 -0.23585,1.91211 -2.30362,5.27273 -4.59505,7.46806 -4.03018,3.86116 -5.09242,7.88686 -3.30803,12.53692 1.09129,2.84387 6.21111,2.93919 6.21111,0.11563 0,-1.16643 1.19931,-2.12079 2.66511,-2.12079 1.46581,0 3.6757,-1.54234 4.91085,-3.42742 1.23515,-1.88508 3.53516,-3.83667 5.11112,-4.33686 1.57596,-0.50019 2.86539,-1.71517 2.86539,-2.69995 0,-2.28559 13.61421,-11.53022 18.73365,-12.72095 5.28739,-1.22978 4.90367,0.1001 -0.70693,2.45007 -3.95794,1.65776 -4.84008,2.98935 -6.36237,9.60393 -2.13418,9.27337 -2.25283,13.9589 -0.35346,13.9589 0.77762,0 1.41386,-0.55355 1.41386,-1.23011 0,-0.67657 2.92099,-2.04794 6.49109,-3.04751 3.5701,-0.99957 6.81935,-2.67284 7.22057,-3.7184 1.04087,-2.71248 4.59783,-2.35061 5.63473,0.57325 0.48261,1.36084 1.81984,3.57233 2.97164,4.91443 1.88666,2.19837 1.51511,3.32893 -3.74956,11.40945 -3.21404,4.93311 -5.84373,9.4674 -5.84373,10.0762 0,1.25459 21.2162,0.19384 27.34733,-1.36728 3.75398,-0.95586 3.90193,-0.83642 2.24678,1.81391 -1.56315,2.503 -1.16223,3.44675 3.40415,8.01313 2.84679,2.8468 5.17599,5.68427 5.17599,6.3055 0,2.06202 10.15234,4.39452 12.84802,2.95184 4.65549,-2.49154 6.74591,-1.56315 7.20991,3.20203 0.32354,3.32261 1.72671,5.41195 5.20189,7.74571 2.61736,1.75769 5.91406,5.2773 7.32597,7.82137 11.71873,21.11531 17.16014,37.99971 14.28206,44.31642 -0.8294,1.82035 -3.92006,4.48913 -6.86813,5.93065 -13.71647,6.70692 -14.49875,7.50639 -14.52858,14.84799 -0.0199,4.907 -0.28884,5.26185 -3.39631,4.48192 -2.78262,-0.69839 -3.77635,-0.0419 -5.66421,3.74252 -2.00929,4.02771 -2.04059,4.96944 -0.25573,7.69347 2.1453,3.27416 9.87457,5.6276 12.62101,3.8429 0.89216,-0.57975 3.20774,-1.05409 5.14573,-1.05409 1.93798,0 3.52857,-0.74228 3.53465,-1.64951 0.0192,-2.86747 2.02805,-3.80071 2.95902,-1.37464 1.00654,2.62298 17.07956,16.45583 19.1208,16.45583 0.7263,0 2.06299,-1.62949 2.97042,-3.62108 2.17322,-4.76971 5.21989,-3.96461 19.07553,5.04075 5.91177,3.84232 13.03787,7.72934 15.83578,8.63783 2.79789,0.90849 7.51946,3.82933 10.49237,6.49075 5.59743,5.01099 8.09492,5.25661 17.48399,1.71949 3.31395,-1.24845 6.91046,-6.56321 6.34283,-9.37314 -0.2258,-1.11786 1.87368,-0.72779 6.06728,1.12724 l 6.41256,2.83657 8.61618,-5.0498 c 4.73891,-2.7774 15.07708,-6.83476 22.97372,-9.01635 11.74955,-3.24604 14.43498,-4.48869 14.78395,-6.84113 0.23453,-1.58104 1.98418,-3.58437 3.88812,-4.45187 1.90393,-0.86749 3.48717,-2.38619 3.5183,-3.37488 0.0311,-0.9887 1.00581,-0.0479 2.16594,2.09047 1.55546,2.86714 3.18937,3.88812 6.22233,3.88812 2.26215,0 4.51183,-0.64533 4.99929,-1.43406 0.48747,-0.78874 3.38809,-2.71039 6.44582,-4.27032 5.91801,-3.01915 7.19161,-6.73347 3.39052,-9.88809 -1.62334,-1.34725 -2.95715,-1.41379 -5.30198,-0.26447 -10.88415,5.3348 -16.56467,7.14935 -16.56467,5.2913 0,-1.05791 -0.79529,-2.2946 -1.76732,-2.74822 -1.34675,-0.62848 -1.3651,-1.0149 -0.0771,-1.62381 0.92963,-0.43948 4.96349,-3.46161 8.96413,-6.71583 6.60959,-5.37642 7.20583,-6.33625 6.52868,-10.50984 -0.58124,-3.58234 -0.13842,-4.91776 2.01202,-6.06867 1.73187,-0.92687 3.62303,-0.99111 5.08538,-0.17275 2.07151,1.15928 1.99153,1.48304 -0.72567,2.93724 -3.84663,2.05867 -3.8542,4.60468 -0.0308,10.39131 4.63275,7.01169 15.25453,14.97348 23.43751,17.5681 6.40727,2.03159 8.13044,2.08803 13.15177,0.43085 3.17813,-1.04888 7.72413,-4.12309 10.10223,-6.8316 3.63914,-4.14474 4.21054,-5.76903 3.60848,-10.25764 -0.70898,-5.28585 -0.64545,-5.36618 7.17008,-9.06665 5.32452,-2.52104 12.90327,-4.39284 23.33648,-5.76363 8.49811,-1.11656 16.01751,-2.38015 16.7098,-2.80802 2.47818,-1.53159 1.20157,1.10276 -1.65554,3.4163 -3.4393,2.78498 -2.60052,6.24958 2.02303,8.3562 2.51319,1.14509 3.92944,0.88652 6.63806,-1.21195 2.87757,-2.22936 3.10156,-2.88895 1.3634,-4.01499 -2.51495,-1.62927 -1.89382,-2.39609 2.91928,-3.6041 2.75022,-0.69025 4.74628,-0.006 8.02102,2.74947 6.5931,5.54773 12.5972,7.2748 15.65868,4.50421 3.4512,-3.1233 9.86059,-1.67723 15.13628,3.41498 4.86794,4.69873 14.77816,6.06557 14.77816,2.03825 0,-1.16643 1.11942,-2.12079 2.48762,-2.12079 2.98354,0 6.25503,4.74796 5.18781,7.52912 -0.43405,1.13109 1.07576,3.53176 3.5086,5.57886 3.64936,3.07073 3.96916,3.84348 2.19869,5.31285 -1.13951,0.9457 -2.07183,2.2778 -2.07183,2.9602 0,0.68241 -1.11342,2.35416 -2.47426,3.715 -3.41716,3.41716 -18.45166,3.33359 -20.38064,-0.11325 -1.39492,-2.49262 -6.30471,-3.10342 -9.36053,-1.16451 -3.02677,1.92048 -3.76482,10.69259 -1.12199,13.33542 2.12307,2.12309 2.08715,2.41274 -0.46892,3.78071 -1.52248,0.81481 -3.72886,1.48147 -4.90304,1.48147 -1.1742,0 -3.9114,1.52808 -6.08267,3.39573 -3.77521,3.2473 -3.8667,3.61986 -2.09332,8.52408 1.66752,4.61142 1.54331,5.77107 -1.23207,11.50426 -1.86369,3.84987 -2.84304,8.03478 -2.47198,10.56304 0.6549,4.46209 -0.14915,5.19588 -2.79461,2.55042 -1.2397,-1.2397 -2.17655,-1.18867 -3.86228,0.21036 -1.80519,1.49818 -3.33663,1.51419 -8.10762,0.0847 -5.21309,-1.56188 -6.08721,-1.48171 -7.68609,0.70488 -2.19193,2.99765 -1.25499,4.8783 2.43042,4.8783 1.50935,0 2.74427,0.68176 2.74427,1.51505 0,0.83327 1.43154,1.39909 3.18119,1.25735 5.27039,-0.42692 6.71584,-0.0317 6.71584,1.83601 0,0.97938 1.21821,2.54148 2.70715,3.47134 2.16445,1.35172 3.04688,1.28129 4.40178,-0.35126 2.37769,-2.86494 4.20196,-1.24553 4.20196,3.7301 0,2.61876 1.34244,5.56486 3.53465,7.75706 1.94406,1.94406 3.52678,4.30103 3.51715,5.23771 -0.0199,1.94515 -8.89657,8.06544 -11.69772,8.06544 -1.02181,0 -2.56425,0.70641 -3.42762,1.56978 -0.86338,0.86337 -6.23958,1.74507 -11.94713,1.95933 -12.37,0.46435 -18.40628,2.46504 -20.35517,6.7466 -0.79709,1.75114 -2.35756,2.8977 -3.5056,2.57576 -1.13797,-0.31912 -6.02149,-1.216 -10.85226,-1.99306 l -8.78323,-1.41286 2.36404,-4.00197 c 2.94462,-4.98485 0.95022,-8.03116 -3.64711,-5.57074 -3.33314,1.78384 -5.82675,-0.50468 -3.30148,-3.02995 0.82326,-0.82326 1.13397,-3.31121 0.69047,-5.52873 -0.46993,-2.34964 -0.0501,-4.94323 1.00636,-6.21611 2.01489,-2.4278 0.88524,-4.08073 -3.74092,-5.47382 -2.66797,-0.80341 -3.14525,-0.10279 -4.46657,6.55693 -0.81367,4.10105 -0.98951,8.0927 -0.39074,8.87033 0.59876,0.77762 0.78946,3.79975 0.42376,6.71584 l -0.66488,5.30197 -8.17896,0 c -6.96958,0 -8.7952,0.57491 -12.34659,3.88812 -8.18568,7.63666 -8.42085,7.75523 -11.79757,5.94807 -3.40815,-1.82399 -11.583,0.0482 -18.06395,4.13706 -2.98587,1.88376 -3.46659,1.86191 -4.62625,-0.21027 -0.71178,-1.27188 -2.20416,-3.22252 -3.31641,-4.33477 -1.11225,-1.11224 -1.63547,-2.40907 -1.16272,-2.88182 1.67738,-1.67733 -14.55587,-17.22371 -22.90904,-21.93967 -10.82386,-6.11083 -26.49724,-11.47004 -33.54491,-11.47004 -8.68495,0 -27.74282,8.22407 -34.34982,14.82304 -6.31279,6.3051 -11.22206,15.38292 -10.01715,18.52286 0.4312,1.12368 2.54995,2.74666 4.70834,3.60659 l 3.92435,1.56355 -7.01378,3.29801 c -6.72723,3.16329 -10.25896,7.71533 -8.36437,10.78085 0.57051,0.92309 -0.31087,1.04923 -2.47152,0.35366 -1.84703,-0.5946 -6.53943,-0.96227 -10.42754,-0.81705 -8.21382,0.30678 -12.54596,3.94717 -11.17892,9.39387 1.05864,4.21797 -3.71153,9.16766 -8.83515,9.16766 -8.3615,0 -17.45325,12.39762 -17.45325,23.79949 0,2.25339 -2.0416,5.44383 -5.72701,8.94967 -4.77025,4.53783 -6.18745,5.20155 -8.48317,3.97292 -1.51588,-0.81127 -2.75615,-2.62653 -2.75615,-4.0339 0,-3.92556 -4.41141,-7.04913 -11.15147,-7.89597 -3.35559,-0.42162 -6.64489,-1.10267 -7.30958,-1.51349 -0.6647,-0.41079 -3.46336,0.19523 -6.21928,1.34672 -2.75591,1.15149 -5.01075,1.68801 -5.01075,1.19224 0,-0.49576 -1.35541,0.55348 -3.01202,2.33164 -2.20582,2.36767 -3.30088,2.76565 -4.09119,1.48689 -0.70049,-1.13341 -2.49629,-1.40284 -5.11768,-0.76779 -2.22117,0.53809 -8.90632,0.90209 -14.85587,0.80889 -6.30996,-0.0988 -11.20505,0.45785 -11.74779,1.33601 -0.51174,0.82801 -2.32443,1.52533 -4.02819,1.54961 -1.70375,0.0243 -5.64269,1.6116 -8.75318,3.52741 -3.11049,1.9158 -7.00907,3.48654 -8.66352,3.49053 -1.65443,0.004 -3.8001,0.96159 -4.76816,2.12803 -0.96805,1.16643 -2.55074,2.12079 -3.5171,2.12079 -0.96635,0 -3.38179,1.27806 -5.36764,2.84013 -1.98586,1.56208 -5.59356,3.23671 -8.01712,3.72143 -2.42357,0.48471 -5.0425,2.06972 -5.81987,3.52223 -0.77737,1.45253 -2.35516,2.64096 -3.50619,2.64096 -2.57107,0 -17.60177,9.82965 -17.60177,11.51106 0,0.66752 -34.28875,1.21368 -76.19722,1.21368 -66.42659,0 -76.30157,-0.27194 -77.01105,-2.12079 z" id="path3865" inkscape:connector-curvature="0"/>
  <path inkscape:connector-curvature="0" id="path3869" d="m 296.43144,588.43997 c 0,-0.6744 5.24896,-3.1462 11.66435,-5.4929 8.74113,-3.19744 13.20706,-4.08957 17.82012,-3.55983 5.93265,0.68127 6.11955,0.5857 5.1568,-2.63681 -0.54943,-1.83903 -2.20611,-5.44783 -3.68151,-8.01956 -1.4754,-2.57172 -2.68254,-5.44081 -2.68254,-6.37574 0,-0.93493 -1.33094,-2.53105 -2.95763,-3.54694 -2.20573,-1.3775 -2.73606,-2.72988 -2.08606,-5.31966 0.6031,-2.40296 0.20762,-3.72737 -1.28396,-4.29974 -1.18554,-0.45494 -2.15552,-1.98611 -2.15552,-3.40262 0,-1.4165 -0.95436,-3.52982 -2.12079,-4.69625 -1.16644,-1.16644 -2.12079,-4.34103 -2.12079,-7.05466 0,-6.81128 -1.2377,-9.40672 -4.4858,-9.40672 -5.10593,0 -8.23895,-2.70716 -8.23895,-7.11905 0,-4.38646 -1.21481,-5.23921 -3.79212,-2.6619 -1.09735,1.09735 -2.37662,1.00119 -4.52436,-0.3401 -3.03398,-1.89475 -4.17704,-6.84528 -1.58055,-6.84528 0.77763,0 1.41386,-1.18348 1.41386,-2.62996 0,-1.44647 2.18411,-4.94578 4.85357,-7.77623 l 4.85357,-5.14628 73.12791,0 c 69.53509,0 73.02061,0.12156 70.94384,2.47425 -2.87945,3.26204 -12.3928,23.07619 -12.3928,25.81141 0,1.17649 -1.27247,2.93375 -2.82772,3.90502 -2.05565,1.28377 -2.82772,3.29716 -2.82772,7.37405 0,5.41687 -0.13798,5.58053 -4.04577,4.79897 -5.05311,-1.01063 -12.92056,2.82855 -12.92056,6.305 0,3.48999 -5.16689,8.71345 -8.61909,8.71345 -1.56942,0 -5.75173,0.72979 -9.29402,1.62175 -5.44795,1.37181 -6.75993,2.40682 -8.51296,6.71584 -5.3154,13.06542 -6.78877,15.70929 -8.83908,15.86114 -6.00038,0.44437 -12.76606,2.65705 -19.57213,6.40095 -3.33249,1.83314 -7.27143,3.33298 -8.75319,3.33298 -1.48176,0 -3.12512,0.6974 -3.65191,1.54976 -0.98417,1.59242 -2.144,1.45428 -17.19705,-2.04833 -7.94247,-1.84809 -9.55304,-1.81347 -16.56498,0.35606 -4.27192,1.32175 -8.21282,2.84889 -8.75757,3.39364 -1.37754,1.37754 -3.34689,1.23884 -3.34689,-0.23571 z" style="fill:#da251d;fill-opacity:1;fill-rule:evenodd;stroke:#da251d;stroke-width:3;stroke-linejoin:miter;stroke-miterlimit:4;stroke-opacity:1;stroke-dasharray:none;stroke-dashoffset:0"/>
</svg>