<?xml version="1.0" encoding="UTF-8" standalone="no"?>
<svg
   role="img"
   viewBox="0 0 24 24"
   version="1.1"
   id="svg22"
   sodipodi:docname="actionhero.svg"
   xml:space="preserve"
   inkscape:version="1.2.1 (0f2f062aeb, 2022-09-21, custom)"
   inkscape:export-filename="1c.svg"
   inkscape:export-xdpi="96"
   inkscape:export-ydpi="96"
   xmlns:inkscape="http://www.inkscape.org/namespaces/inkscape"
   xmlns:sodipodi="http://sodipodi.sourceforge.net/DTD/sodipodi-0.dtd"
   xmlns="http://www.w3.org/2000/svg"
   xmlns:svg="http://www.w3.org/2000/svg"
   xmlns:rdf="http://www.w3.org/1999/02/22-rdf-syntax-ns#"
   xmlns:cc="http://creativecommons.org/ns#"
   xmlns:dc="http://purl.org/dc/elements/1.1/"><defs
     id="defs26"><style
       id="style281">.cls-1{fill:#fff;}</style><polygon
       id="path-1"
       points="0 140 281.443 140 281.443 0.234 0 0.234" /></defs><sodipodi:namedview
     id="namedview24"
     pagecolor="#ffffff"
     bordercolor="#000000"
     borderopacity="0.25"
     inkscape:showpageshadow="2"
     inkscape:pageopacity="0.0"
     inkscape:pagecheckerboard="0"
     inkscape:deskcolor="#d1d1d1"
     showgrid="false"
     inkscape:zoom="22.627417"
     inkscape:cx="6.0325047"
     inkscape:cy="9.1039998"
     inkscape:window-width="1920"
     inkscape:window-height="975"
     inkscape:window-x="0"
     inkscape:window-y="1112"
     inkscape:window-maximized="1"
     inkscape:current-layer="svg22" /><title
     id="title18">Amazon AWS</title><metadata
     id="metadata239"><rdf:RDF><cc:Work
         rdf:about=""><dc:title>Amazon AWS</dc:title></cc:Work></rdf:RDF></metadata><path
     id="Fill-2"
     style="fill:#000000;fill-rule:evenodd;stroke:none;stroke-width:0.251394"
     d="m 10.69915,14.473068 1.336411,-4.112557 1.33616,4.112557 z M 16.180798,18.598445 12.035561,5.8638256 7.890072,18.598445 9.8124824,17.2017 10.247645,15.862522 h 3.575579 L 14.258388,17.2017 Z M 8.1496113,12.426141 7.9972663,12.895244 H 5.4868448 l 2.031013,1.475682 -2.7919828,8.592902 7.309535,-5.3107 7.309535,5.3107 -2.791983,-8.592902 2.031013,-1.475682 h -2.510421 l -0.152345,-0.469103 h 3.308346 l 1.999589,-1.452555 h -5.780053 l -0.152345,-0.469101 h 6.577978 L 23.862749,9.0602262 H 14.827392 L 12.03541,0.46732443 9.2434269,9.0602262 H 0.20807155 L 2.1960961,10.504485 h 6.577978 L 8.6217293,10.973586 H 2.8416761 l 1.9995886,1.452555 z" /></svg>
