<?xml version="1.0" encoding="UTF-8" standalone="no"?>
<!-- Created with Inkscape (http://www.inkscape.org/) -->

<svg
   width="210mm"
   height="297mm"
   viewBox="0 0 210 297"
   version="1.1"
   id="svg12"
   inkscape:version="1.2.1 (0f2f062aeb, 2022-09-21, custom)"
   sodipodi:docname="bul.svg"
   xmlns:inkscape="http://www.inkscape.org/namespaces/inkscape"
   xmlns:sodipodi="http://sodipodi.sourceforge.net/DTD/sodipodi-0.dtd"
   xmlns="http://www.w3.org/2000/svg"
   xmlns:svg="http://www.w3.org/2000/svg">
  <sodipodi:namedview
     id="namedview14"
     pagecolor="#ffffff"
     bordercolor="#000000"
     borderopacity="0.25"
     inkscape:showpageshadow="2"
     inkscape:pageopacity="0.0"
     inkscape:pagecheckerboard="0"
     inkscape:deskcolor="#d1d1d1"
     inkscape:document-units="mm"
     showgrid="false"
     inkscape:zoom="0.74297138"
     inkscape:cx="397.05433"
     inkscape:cy="561.25984"
     inkscape:window-width="1920"
     inkscape:window-height="975"
     inkscape:window-x="0"
     inkscape:window-y="1112"
     inkscape:window-maximized="1"
     inkscape:current-layer="layer1" />
  <defs
     id="defs9" />
  <g
     inkscape:label="Слой 1"
     inkscape:groupmode="layer"
     id="layer1">
    <path
       id="path118"
       style="fill:#000000;stroke-width:0.264583"
       d="M 80.757861 96.601855 A 24.420858 24.420858 0 0 0 56.33713 121.02259 A 24.420858 24.420858 0 0 0 80.757861 145.44332 A 24.420858 24.420858 0 0 0 105.17859 121.02259 A 24.420858 24.420858 0 0 0 80.757861 96.601855 z M 80.795068 100.17941 A 21.183676 21.183676 0 0 1 101.97879 121.36313 A 21.183676 21.183676 0 0 1 80.795068 142.54685 A 21.183676 21.183676 0 0 1 59.611348 121.36313 A 21.183676 21.183676 0 0 1 80.795068 100.17941 z " />
    <ellipse
       style="fill:#000000;stroke-width:0.423731"
       id="path330"
       cx="80.812454"
       cy="121.26012"
       rx="12.148736"
       ry="11.990294" />
  </g>
</svg>
