<?xml version="1.0" encoding="UTF-8" standalone="no"?>
<svg
   role="img"
   viewBox="0 0 24 24"
   version="1.1"
   id="svg22"
   sodipodi:docname="IoT.svg"
   xml:space="preserve"
   inkscape:version="1.2.1 (0f2f062aeb, 2022-09-21, custom)"
   inkscape:export-filename="1c.svg"
   inkscape:export-xdpi="96"
   inkscape:export-ydpi="96"
   xmlns:inkscape="http://www.inkscape.org/namespaces/inkscape"
   xmlns:sodipodi="http://sodipodi.sourceforge.net/DTD/sodipodi-0.dtd"
   xmlns="http://www.w3.org/2000/svg"
   xmlns:svg="http://www.w3.org/2000/svg"
   xmlns:rdf="http://www.w3.org/1999/02/22-rdf-syntax-ns#"
   xmlns:cc="http://creativecommons.org/ns#"
   xmlns:dc="http://purl.org/dc/elements/1.1/"><defs
     id="defs26"><style
       id="style281">.cls-1{fill:#fff;}</style></defs><sodipodi:namedview
     id="namedview24"
     pagecolor="#ffffff"
     bordercolor="#000000"
     borderopacity="0.25"
     inkscape:showpageshadow="2"
     inkscape:pageopacity="0.0"
     inkscape:pagecheckerboard="0"
     inkscape:deskcolor="#d1d1d1"
     showgrid="false"
     inkscape:zoom="22.627417"
     inkscape:cx="-0.59662135"
     inkscape:cy="10.915961"
     inkscape:window-width="1920"
     inkscape:window-height="975"
     inkscape:window-x="0"
     inkscape:window-y="1112"
     inkscape:window-maximized="1"
     inkscape:current-layer="svg22" /><title
     id="title18">Amazon AWS</title><metadata
     id="metadata239"><rdf:RDF><cc:Work
         rdf:about=""><dc:title>Amazon AWS</dc:title></cc:Work></rdf:RDF></metadata><g
     id="g1689"
     transform="matrix(0.17227284,0,0,0.17227284,-2.3436402,-0.88165625)"
     style="fill:#000000">
	<path
   style="fill:#000000"
   d="m 106.3,98.6 c -8.3,0 -14.9,6.7 -14.9,14.9 0,8.3 6.7,14.9 14.9,14.9 8.2,0 14.9,-6.7 14.9,-14.9 0.1,-8.2 -6.6,-14.9 -14.9,-14.9 z m 0,22.2 c -4,0 -7.3,-3.3 -7.3,-7.3 0,-4 3.3,-7.3 7.3,-7.3 4,0 7.3,3.3 7.3,7.3 0,4 -3.2,7.3 -7.3,7.3 z"
   id="path1661" />
	<path
   style="fill:#000000"
   d="m 41.4,114.1 c -8.3,0 -14.9,6.7 -14.9,14.9 0,8.3 6.7,14.9 14.9,14.9 8.2,0 14.9,-6.7 14.9,-14.9 0.1,-8.2 -6.6,-14.9 -14.9,-14.9 z m 0,22.2 c -4,0 -7.3,-3.3 -7.3,-7.3 0,-4 3.3,-7.3 7.3,-7.3 4,0 7.3,3.3 7.3,7.3 0,4.1 -3.3,7.3 -7.3,7.3 z"
   id="path1663" />
	<g
   id="g1667"
   style="fill:#000000">
		
			<rect
   x="52.299999"
   y="30"
   transform="matrix(0.8226,-0.5686,0.5686,0.8226,-13.6839,38.945)"
   style="fill:#000000"
   width="6.5999999"
   height="22.9"
   id="rect1665" />
	</g>
	<g
   id="g1671"
   style="fill:#000000">
		
			<rect
   x="89.199997"
   y="81.699997"
   transform="matrix(0.8226,-0.5686,0.5686,0.8226,-36.5232,69.1274)"
   style="fill:#000000"
   width="6.5999999"
   height="22.9"
   id="rect1669" />
	</g>
	<g
   id="g1675"
   style="fill:#000000">
		<polygon
   style="fill:#000000"
   points="43.5,115 61.8,83.6 67.5,86.9 49.2,118.3 "
   id="polygon1673" />
	</g>
	<g
   id="g1679"
   style="fill:#000000">
		<path
   style="fill:#000000"
   d="M 45.4,41.4 V 84.2 H 37.7 V 41.4 Z"
   id="path1677" />
	</g>
	<g
   id="g1683"
   style="fill:#000000">
		<path
   style="fill:#000000"
   d="M 103.8,47.8 H 91.4 v -6.4 h 32.2 v 6.4 h -12.1 v 37.1 h -7.7 V 47.8 Z"
   id="path1681" />
	</g>
	<path
   style="fill:#000000"
   d="m 73.4,46.9 c -11.5,0 -20.8,9.3 -20.8,20.8 0,11.5 9.3,20.8 20.8,20.8 11.5,0 20.8,-9.3 20.8,-20.8 0,-11.5 -9.3,-20.8 -20.8,-20.8 z m 0,33.9 c -7.2,0 -13,-5.8 -13,-13 0,-7.2 5.8,-13 13,-13 7.2,0 13,5.8 13,13 0,7.1 -5.8,13 -13,13 z"
   id="path1685" />
	<path
   style="fill:#000000"
   d="m 41.4,6 c -8.3,0 -14.9,6.7 -14.9,14.9 0,8.3 6.7,14.9 14.9,14.9 8.2,0 14.9,-6.7 14.9,-14.9 C 56.3,12.7 49.6,6 41.4,6 Z m 0,22.2 c -4,0 -7.3,-3.3 -7.3,-7.3 0,-4 3.3,-7.3 7.3,-7.3 4,0 7.3,3.3 7.3,7.3 0,4 -3.3,7.3 -7.3,7.3 z"
   id="path1687" />
</g></svg>
