<?xml version="1.0" encoding="UTF-8" standalone="no"?>
<svg
   role="img"
   viewBox="0 0 24 24"
   version="1.1"
   id="svg22"
   xml:space="preserve"
   xmlns="http://www.w3.org/2000/svg"
   xmlns:svg="http://www.w3.org/2000/svg"
   xmlns:rdf="http://www.w3.org/1999/02/22-rdf-syntax-ns#"
   xmlns:cc="http://creativecommons.org/ns#"
   xmlns:dc="http://purl.org/dc/elements/1.1/"><defs
     id="defs26"><style
       id="style281">.cls-1{fill:#fff;}</style></defs><title
     id="title18">Amazon AWS</title><metadata
     id="metadata239"><rdf:RDF><cc:Work
         rdf:about=""><dc:title>Amazon AWS</dc:title></cc:Work></rdf:RDF></metadata><g
     fill="#111111"
     fill-rule="evenodd"
     id="g1873"
     transform="matrix(0.48238898,0,0,0.48238898,0.77072338,0.58119772)"><path
       d="m 18.6373,2.02e-4 -14.548,3.80972 -4.008,14.62884 5.014,5.14797 -5.096,5.06313 3.773,14.69348 14.484,4.04707 5.096,-5.06414 5.014,5.14696 14.547,-3.80972 4.008,-14.63086 -5.013,-5.14595 5.095,-5.06313 -3.772,-14.69348 -14.486,-4.04707 -5.094,5.06313 z m -8.928,6.62358 7.663,-2.00788 3.351,3.44006 -4.887,4.85608 z m 16.822,1.47864 3.405,-3.3835 7.63,2.13211 -6.227,6.18726 z m -21.859,9.13545 2.111,-7.70529 6.125,6.28826 -4.886,4.85608 z m 29.547,-1.24331 6.227,-6.18827 1.986,7.74064 -3.404,3.3835 z m -15.502,-0.12625 4.887,-4.85608 4.807,4.93587 -4.886,4.85608 z m -7.814,7.76488 4.886,-4.85608 4.809,4.93587 -4.887,4.85608 z m 15.503,0.12726 4.886,-4.85608 4.808,4.93587 -4.887,4.85608 z m -21.836,6.16605 3.406,-3.38451 4.807,4.93688 -6.225,6.18625 z m 14.021,1.59883 4.887,-4.85608 4.808,4.93587 -4.886,4.85608 z m 15.502,0.12726 4.887,-4.85608 3.351,3.43905 -2.111,7.70529 z m -24.656,8.96981 6.226,-6.18827 4.809,4.93587 -3.405,3.38451 z m 16.843,-1.20493 4.886,-4.85608 6.126,6.28826 -7.662,2.00687 z"
       mask="url(#a)"
       id="path1871" /></g></svg>
