<?xml version="1.0" encoding="UTF-8" standalone="no"?>
<svg
   role="img"
   viewBox="0 0 24 24"
   version="1.1"
   id="svg22"
   sodipodi:docname="ramda.svg"
   xml:space="preserve"
   inkscape:version="1.2.1 (0f2f062aeb, 2022-09-21, custom)"
   inkscape:export-filename="1c.svg"
   inkscape:export-xdpi="96"
   inkscape:export-ydpi="96"
   xmlns:inkscape="http://www.inkscape.org/namespaces/inkscape"
   xmlns:sodipodi="http://sodipodi.sourceforge.net/DTD/sodipodi-0.dtd"
   xmlns="http://www.w3.org/2000/svg"
   xmlns:svg="http://www.w3.org/2000/svg"
   xmlns:rdf="http://www.w3.org/1999/02/22-rdf-syntax-ns#"
   xmlns:cc="http://creativecommons.org/ns#"
   xmlns:dc="http://purl.org/dc/elements/1.1/"><defs
     id="defs26"><style
       id="style281">.cls-1{fill:#fff;}</style></defs><sodipodi:namedview
     id="namedview24"
     pagecolor="#ffffff"
     bordercolor="#000000"
     borderopacity="0.25"
     inkscape:showpageshadow="2"
     inkscape:pageopacity="0.0"
     inkscape:pagecheckerboard="0"
     inkscape:deskcolor="#d1d1d1"
     showgrid="false"
     inkscape:zoom="16"
     inkscape:cx="2.46875"
     inkscape:cy="13.3125"
     inkscape:window-width="1920"
     inkscape:window-height="975"
     inkscape:window-x="0"
     inkscape:window-y="1112"
     inkscape:window-maximized="1"
     inkscape:current-layer="svg22" /><title
     id="title18">Amazon AWS</title><metadata
     id="metadata239"><rdf:RDF><cc:Work
         rdf:about=""><dc:title>Amazon AWS</dc:title></cc:Work></rdf:RDF></metadata><path
     style="fill:#131311;stroke:none;stroke-width:0.103906"
     d="M 8.3096195,9.2793458 6.854945,9.779629 5.0885545,9.9027777 C 5.0163403,8.9935334 4.1448864,8.9811686 3.4260693,9.0715351 4.3632953,8.0571283 3.5203115,7.8535362 2.9065427,7.0973342 4.3772186,7.0799092 3.454955,5.8163895 3.2182587,5.0192279 L 4.0495013,5.4348492 4.4651225,3.0450269 H 4.5690279 L 4.9846492,4.08408 C 6.2076148,3.7317372 5.8016567,2.8281454 6.6471343,2.1098791 V 3.4606482 L 7.6861876,3.5645535 C 8.0623248,2.9298687 8.4035499,2.4327649 9.1408621,2.2137845 l -0.623432,1.662485 0.7273373,0.4156212 H 9.3486727 C 9.9920545,3.7011579 10.542129,3.3641617 11.426779,3.3567429 11.0096,3.7560406 10.126301,4.2821964 10.07414,4.9153226 10.040059,5.328793 10.445913,5.8811017 10.595537,6.2660916 9.1005468,6.2662579 7.0177647,6.4509807 6.0237024,7.720766 7.7322176,8.267069 8.8281071,7.9071826 10.491631,7.5129554 8.9276484,11.269444 6.7844972,14.947484 4.8486371,18.526918 4.0339155,20.033338 2.586826,21.935221 2.2831108,23.618279 l 2.6610153,-0.106815 0.6960618,-1.243954 1.2404217,-2.389822 3.6366864,-7.065561 1.532915,-3.11716 h 0.20781 c 1.000713,3.473866 3.064792,6.86544 4.511985,10.182721 0.379151,0.86896 0.786772,1.72514 1.159064,2.597633 0.146611,0.343511 0.279298,0.923613 0.606704,1.140048 0.605248,0.400244 2.15032,0.106815 2.865916,0.106815 v -0.103905 c -0.709154,-0.545191 -1.630898,-1.652822 -1.963395,-2.493727 -0.17134,-0.433494 0.148792,-1.181612 0.710504,-0.926213 0.985646,0.448248 0.355564,2.434398 1.460702,3.108224 0,-3.457137 -0.861271,-6.87261 -1.337262,-10.286626 C 20.036478,11.328151 19.903584,9.1927719 18.769872,7.8247544 18.070174,6.9804199 16.958802,6.306012 15.894708,6.0334268 15.318657,5.8858501 14.516404,6.1225361 14.083014,5.6137222 13.36108,4.766073 13.369186,3.3531582 12.550619,2.4215951 c -2.45549,-2.79436614 -6.6498366,-2.79442329 -9.1054311,0 C 1.915182,4.1627676 1.3692635,7.1398419 2.8576033,9.0715351 4.1190139,10.708564 7.1603227,11.49336 8.3096195,9.2793458 m 8.7280475,1.4546742 0.0026,1.766286 1.14036,1.558684 c -1.335423,-0.384657 -3.438155,-2.642727 -1.14299,-3.32497 m 0.311716,1.142959 0.519527,1.142958 c -0.547582,-0.158871 -0.739703,-0.616782 -0.519527,-1.142958 z"
     id="path1803" /></svg>
