<?xml version="1.0" encoding="UTF-8" standalone="no"?>
<svg
   role="img"
   viewBox="0 0 24 24"
   version="1.1"
   id="svg22"
   sodipodi:docname="SNMP.svg"
   xml:space="preserve"
   inkscape:version="1.2.1 (0f2f062aeb, 2022-09-21, custom)"
   inkscape:export-filename="1c.svg"
   inkscape:export-xdpi="96"
   inkscape:export-ydpi="96"
   xmlns:inkscape="http://www.inkscape.org/namespaces/inkscape"
   xmlns:sodipodi="http://sodipodi.sourceforge.net/DTD/sodipodi-0.dtd"
   xmlns="http://www.w3.org/2000/svg"
   xmlns:svg="http://www.w3.org/2000/svg"
   xmlns:rdf="http://www.w3.org/1999/02/22-rdf-syntax-ns#"
   xmlns:cc="http://creativecommons.org/ns#"
   xmlns:dc="http://purl.org/dc/elements/1.1/"><defs
     id="defs26"><style
       id="style281">.cls-1{fill:#fff;}</style><polygon
       id="path-1"
       points="0 140 281.443 140 281.443 0.234 0 0.234" /></defs><sodipodi:namedview
     id="namedview24"
     pagecolor="#ffffff"
     bordercolor="#000000"
     borderopacity="0.25"
     inkscape:showpageshadow="2"
     inkscape:pageopacity="0.0"
     inkscape:pagecheckerboard="0"
     inkscape:deskcolor="#d1d1d1"
     showgrid="false"
     inkscape:zoom="22.627417"
     inkscape:cx="19.688504"
     inkscape:cy="15.423767"
     inkscape:window-width="1920"
     inkscape:window-height="975"
     inkscape:window-x="0"
     inkscape:window-y="1112"
     inkscape:window-maximized="1"
     inkscape:current-layer="svg22" /><title
     id="title18">Amazon AWS</title><metadata
     id="metadata239"><rdf:RDF><cc:Work
         rdf:about=""><dc:title>Amazon AWS</dc:title></cc:Work></rdf:RDF></metadata><g
     aria-label="SNMP"
     transform="matrix(0.63241508,0,0,0.94804193,1.3903903,3.3103476)"
     id="text1484"
     style="font-size:10.7818px;font-family:'Noto Serif Devanagari';-inkscape-font-specification:'Noto Serif Devanagari';stroke-width:0.898476"><g
       id="g1602"><path
         d="M 6.7961227,4.9050504 V 5.942167 Q 6.1906993,5.6526167 5.6537152,5.5104738 5.116731,5.3683309 4.6165986,5.3683309 q -0.8686509,0 -1.3424605,0.3369313 -0.468545,0.3369312 -0.468545,0.9581482 0,0.5211906 0.3106085,0.7896827 0.3158731,0.2632275 1.1897885,0.4264286 l 0.6422752,0.1316138 q 1.1897885,0.2263757 1.7530955,0.8002117 0.5685715,0.5685715 0.5685715,1.5267198 0,1.142408 -0.7686244,1.732037 -0.7633599,0.58963 -2.2426987,0.58963 -0.5580424,0 -1.1897885,-0.126349 -0.6264816,-0.12635 -1.3003441,-0.373783 v -1.095027 q 0.6475397,0.363254 1.2687568,0.547513 0.621217,0.18426 1.2213758,0.18426 0.9107673,0 1.4056351,-0.35799 0.4948677,-0.357989 0.4948677,-1.021323 0,-0.5791004 -0.3579894,-0.9055025 Q 5.4483977,9.1851303 4.6376568,9.0219293 L 3.9901171,8.89558 Q 2.8003286,8.6586752 2.2686089,8.1532784 1.7368893,7.6478815 1.7368893,6.7476433 q 0,-1.0423811 0.7317726,-1.6425399 0.7370371,-0.6001588 2.0268521,-0.6001588 0.5527778,0 1.1266139,0.1000264 0.573836,0.1000265 1.1739948,0.3000794 z"
         id="path1561" /><path
         d="m 8.9282661,4.6470874 h 1.4319579 l 3.485133,6.5754246 V 4.6470874 h 1.031852 V 12.507062 H 13.445251 L 9.960118,5.9316379 V 12.507062 H 8.9282661 Z"
         id="path1563" /><path
         d="m 16.993558,4.6470874 h 1.58463 l 2.005794,5.3487838 2.016323,-5.3487838 h 1.584629 V 12.507062 H 23.147818 V 5.6052357 L 21.120966,10.996136 H 20.052262 L 18.02541,5.6052357 v 6.9018263 h -1.031852 z"
         id="path1565" /><path
         d="M 27.359459,5.5210029 V 8.474416 h 1.337196 q 0.742301,0 1.147672,-0.3843123 0.40537,-0.3843122 0.40537,-1.0950265 0,-0.7054499 -0.40537,-1.0897621 Q 29.438956,5.5210029 28.696655,5.5210029 Z M 26.29602,4.6470874 h 2.400635 q 1.321402,0 1.995265,0.6001588 0.679127,0.5948943 0.679127,1.747831 0,1.1634657 -0.679127,1.75836 -0.673863,0.5948942 -1.995265,0.5948942 H 27.359459 V 12.507062 H 26.29602 Z"
         id="path1567" /></g></g></svg>
